<svg width="380" height="65" viewBox="0 0 380 65" fill="none" xmlns="http://www.w3.org/2000/svg">
<rect x="1" y="1.5" width="378" height="62" rx="7" fill="#FFF5EF"/>
<rect x="1" y="1.5" width="378" height="62" rx="7" stroke="#062630" stroke-width="2"/>
<path d="M25.656 40V25.6H30.984C31.944 25.6 32.778 25.78 33.486 26.14C34.194 26.488 34.74 26.992 35.124 27.652C35.52 28.312 35.718 29.086 35.718 29.974C35.718 30.79 35.52 31.51 35.124 32.134C34.728 32.758 34.17 33.244 33.45 33.592C32.742 33.94 31.92 34.114 30.984 34.114H28.356V40H25.656ZM33.036 40L29.346 33.664H32.226L36.078 40H33.036ZM28.356 31.828H30.948C31.584 31.828 32.088 31.66 32.46 31.324C32.832 30.988 33.018 30.544 33.018 29.992C33.018 29.428 32.832 28.978 32.46 28.642C32.088 28.306 31.584 28.138 30.948 28.138H28.356V31.828ZM37.7455 40V25.6H46.8535V27.994H40.4455V31.648H45.9535V33.934H40.4455V37.606H46.6735V40H37.7455ZM50.609 25.6L53.453 38.02H53.723L56.567 25.6H59.141L55.739 40H51.275L47.873 25.6H50.609ZM60.1965 40V37.444H63.7605V28.156H60.1965V25.6H70.0245V28.156H66.4605V37.444H70.0245V40H60.1965ZM72.5561 40V25.6H81.6641V27.994H75.2561V31.648H80.7641V33.934H75.2561V37.606H81.4841V40H72.5561ZM84.8436 25.6L85.5096 32.548L85.7616 37.768H86.0496L86.8596 29.02H89.9736L90.7116 37.768H90.9996L91.2696 32.548L91.9536 25.6H94.3116L92.8176 40H89.2536L88.4796 31.072H88.2096L87.3456 40H83.8176L82.3236 25.6H84.8436ZM106.341 40V25.6H110.139L111.453 33.268H111.723L113.037 25.6H116.709V40H114.351V33.142L114.513 27.832H114.225L112.965 35.32H110.103L108.825 27.832H108.537L108.699 33.142V40H106.341ZM118.97 40V25.6H128.078V27.994H121.67V31.648H127.178V33.934H121.67V37.606H127.898V40H118.97ZM129.548 40V25.6H133.346L134.66 33.268H134.93L136.244 25.6H139.916V40H137.558V33.142L137.72 27.832H137.432L136.172 35.32H133.31L132.032 27.832H131.744L131.906 33.142V40H129.548ZM141.853 40V25.6H146.695C148.171 25.6 149.323 25.948 150.151 26.644C150.991 27.328 151.411 28.288 151.411 29.524C151.411 30.172 151.237 30.748 150.889 31.252C150.541 31.744 150.055 32.098 149.431 32.314V32.602C150.139 32.842 150.691 33.256 151.087 33.844C151.483 34.432 151.681 35.128 151.681 35.932C151.681 37.204 151.243 38.2 150.367 38.92C149.491 39.64 148.279 40 146.731 40H141.853ZM144.553 37.498H146.713C147.457 37.498 148.021 37.342 148.405 37.03C148.801 36.706 148.999 36.262 148.999 35.698C148.999 35.122 148.801 34.678 148.405 34.366C148.021 34.054 147.457 33.898 146.713 33.898H144.553V37.498ZM144.553 31.558H146.677C147.385 31.558 147.931 31.414 148.315 31.126C148.699 30.826 148.891 30.4 148.891 29.848C148.891 29.296 148.699 28.87 148.315 28.57C147.931 28.258 147.385 28.102 146.677 28.102H144.553V31.558ZM153.781 40V25.6H162.889V27.994H156.481V31.648H161.989V33.934H156.481V37.606H162.709V40H153.781ZM164.898 40V25.6H170.226C171.186 25.6 172.02 25.78 172.728 26.14C173.436 26.488 173.982 26.992 174.366 27.652C174.762 28.312 174.96 29.086 174.96 29.974C174.96 30.79 174.762 31.51 174.366 32.134C173.97 32.758 173.412 33.244 172.692 33.592C171.984 33.94 171.162 34.114 170.226 34.114H167.598V40H164.898ZM172.278 40L168.588 33.664H171.468L175.32 40H172.278ZM167.598 31.828H170.19C170.826 31.828 171.33 31.66 171.702 31.324C172.074 30.988 172.26 30.544 172.26 29.992C172.26 29.428 172.074 28.978 171.702 28.642C171.33 28.306 170.826 28.138 170.19 28.138H167.598V31.828ZM178.752 36.148C178.92 36.712 179.214 37.138 179.634 37.426C180.066 37.714 180.618 37.858 181.29 37.858C181.998 37.858 182.556 37.69 182.964 37.354C183.372 37.006 183.576 36.532 183.576 35.932C183.576 35.488 183.432 35.122 183.144 34.834C182.856 34.546 182.448 34.366 181.92 34.294L180.192 34.024C178.932 33.82 177.966 33.358 177.294 32.638C176.634 31.906 176.304 30.946 176.304 29.758C176.304 28.834 176.508 28.042 176.916 27.382C177.336 26.71 177.924 26.194 178.68 25.834C179.436 25.462 180.324 25.276 181.344 25.276C182.376 25.276 183.264 25.456 184.008 25.816C184.764 26.176 185.358 26.692 185.79 27.364C186.222 28.036 186.462 28.852 186.51 29.812H183.972C183.804 29.14 183.498 28.63 183.054 28.282C182.61 27.922 182.04 27.742 181.344 27.742C180.6 27.742 180.012 27.916 179.58 28.264C179.148 28.612 178.932 29.092 178.932 29.704C178.932 30.136 179.076 30.496 179.364 30.784C179.664 31.072 180.078 31.258 180.606 31.342L182.316 31.612C183.588 31.804 184.554 32.266 185.214 32.998C185.886 33.73 186.222 34.69 186.222 35.878C186.222 36.778 186.018 37.564 185.61 38.236C185.214 38.896 184.644 39.412 183.9 39.784C183.156 40.144 182.28 40.324 181.272 40.324C180.264 40.324 179.382 40.162 178.626 39.838C177.882 39.502 177.294 39.022 176.862 38.398C176.442 37.774 176.202 37.024 176.142 36.148H178.752ZM187.835 40V25.6H190.535V31.522H194.963V25.6H197.663V40H194.963V34.078H190.535V40H187.835ZM199.439 40V37.444H203.003V28.156H199.439V25.6H209.267V28.156H205.703V37.444H209.267V40H199.439ZM211.528 40V25.6H216.82C217.78 25.6 218.62 25.78 219.34 26.14C220.06 26.5 220.612 27.01 220.996 27.67C221.392 28.33 221.59 29.11 221.59 30.01C221.59 30.886 221.392 31.648 220.996 32.296C220.612 32.944 220.06 33.448 219.34 33.808C218.62 34.156 217.78 34.33 216.82 34.33H214.228V40H211.528ZM214.228 31.9H216.856C217.492 31.9 217.99 31.738 218.35 31.414C218.71 31.078 218.89 30.616 218.89 30.028C218.89 29.44 218.71 28.978 218.35 28.642C217.99 28.306 217.492 28.138 216.856 28.138H214.228V31.9ZM239.163 40.324C237.339 40.324 235.959 39.694 235.023 38.434C234.099 37.162 233.637 35.284 233.637 32.8C233.637 30.316 234.099 28.444 235.023 27.184C235.959 25.912 237.339 25.276 239.163 25.276C240.987 25.276 242.361 25.912 243.285 27.184C244.221 28.444 244.689 30.316 244.689 32.8C244.689 35.284 244.221 37.162 243.285 38.434C242.361 39.694 240.987 40.324 239.163 40.324ZM239.163 37.84C240.123 37.84 240.831 37.432 241.287 36.616C241.755 35.788 241.989 34.516 241.989 32.8C241.989 31.084 241.755 29.818 241.287 29.002C240.831 28.174 240.123 27.76 239.163 27.76C238.203 27.76 237.489 28.174 237.021 29.002C236.565 29.818 236.337 31.084 236.337 32.8C236.337 34.516 236.565 35.788 237.021 36.616C237.489 37.432 238.203 37.84 239.163 37.84ZM246.339 40V25.6H251.631C252.591 25.6 253.431 25.78 254.151 26.14C254.871 26.5 255.423 27.01 255.807 27.67C256.203 28.33 256.401 29.11 256.401 30.01C256.401 30.886 256.203 31.648 255.807 32.296C255.423 32.944 254.871 33.448 254.151 33.808C253.431 34.156 252.591 34.33 251.631 34.33H249.039V40H246.339ZM249.039 31.9H251.667C252.303 31.9 252.801 31.738 253.161 31.414C253.521 31.078 253.701 30.616 253.701 30.028C253.701 29.44 253.521 28.978 253.161 28.642C252.801 28.306 252.303 28.138 251.667 28.138H249.039V31.9ZM261.02 40V28.156H256.88V25.6H267.86V28.156H263.72V40H261.02ZM269.06 40V37.444H272.624V28.156H269.06V25.6H278.888V28.156H275.324V37.444H278.888V40H269.06ZM285.577 40.324C283.753 40.324 282.373 39.694 281.437 38.434C280.513 37.162 280.051 35.284 280.051 32.8C280.051 30.316 280.513 28.444 281.437 27.184C282.373 25.912 283.753 25.276 285.577 25.276C287.401 25.276 288.775 25.912 289.699 27.184C290.635 28.444 291.103 30.316 291.103 32.8C291.103 35.284 290.635 37.162 289.699 38.434C288.775 39.694 287.401 40.324 285.577 40.324ZM285.577 37.84C286.537 37.84 287.245 37.432 287.701 36.616C288.169 35.788 288.403 34.516 288.403 32.8C288.403 31.084 288.169 29.818 287.701 29.002C287.245 28.174 286.537 27.76 285.577 27.76C284.617 27.76 283.903 28.174 283.435 29.002C282.979 29.818 282.751 31.084 282.751 32.8C282.751 34.516 282.979 35.788 283.435 36.616C283.903 37.432 284.617 37.84 285.577 37.84ZM292.159 40V25.6H296.479L299.683 38.038H299.971L299.827 33.016V25.6H302.203V40H297.883L294.679 27.562H294.391L294.535 32.584V40H292.159ZM306.39 36.148C306.558 36.712 306.852 37.138 307.272 37.426C307.704 37.714 308.256 37.858 308.928 37.858C309.636 37.858 310.194 37.69 310.602 37.354C311.01 37.006 311.214 36.532 311.214 35.932C311.214 35.488 311.07 35.122 310.782 34.834C310.494 34.546 310.086 34.366 309.558 34.294L307.83 34.024C306.57 33.82 305.604 33.358 304.932 32.638C304.272 31.906 303.942 30.946 303.942 29.758C303.942 28.834 304.146 28.042 304.554 27.382C304.974 26.71 305.562 26.194 306.318 25.834C307.074 25.462 307.962 25.276 308.982 25.276C310.014 25.276 310.902 25.456 311.646 25.816C312.402 26.176 312.996 26.692 313.428 27.364C313.86 28.036 314.1 28.852 314.148 29.812H311.61C311.442 29.14 311.136 28.63 310.692 28.282C310.248 27.922 309.678 27.742 308.982 27.742C308.238 27.742 307.65 27.916 307.218 28.264C306.786 28.612 306.57 29.092 306.57 29.704C306.57 30.136 306.714 30.496 307.002 30.784C307.302 31.072 307.716 31.258 308.244 31.342L309.954 31.612C311.226 31.804 312.192 32.266 312.852 32.998C313.524 33.73 313.86 34.69 313.86 35.878C313.86 36.778 313.656 37.564 313.248 38.236C312.852 38.896 312.282 39.412 311.538 39.784C310.794 40.144 309.918 40.324 308.91 40.324C307.902 40.324 307.02 40.162 306.264 39.838C305.52 39.502 304.932 39.022 304.5 38.398C304.08 37.774 303.84 37.024 303.78 36.148H306.39Z" fill="#062630"/>
<path d="M335.96 34.956L336.68 31.836C337.904 31.956 339.008 32.34 339.944 33.036C340.88 33.732 341.528 34.548 341.84 35.532V23.676H344.6V35.532C345.272 33.588 347.288 32.052 349.76 31.836L350.48 34.956C347.096 35.076 344.96 37.068 344.6 40.5H341.84C341.48 37.044 339.344 35.076 335.96 34.956Z" fill="#062630"/>
</svg>
