<svg width="203" height="13" viewBox="0 0 203 13" fill="none" xmlns="http://www.w3.org/2000/svg">
<path d="M4.9 11.742C4.05067 11.742 3.318 11.532 2.702 11.112C2.086 10.692 1.61467 10.0853 1.288 9.29197C0.970667 8.49864 0.812 7.54197 0.812 6.42197C0.812 5.30197 0.970667 4.34531 1.288 3.55197C1.61467 2.75864 2.086 2.15197 2.702 1.73197C3.318 1.31197 4.05067 1.10197 4.9 1.10197C5.75867 1.10197 6.49133 1.31197 7.098 1.73197C7.714 2.15197 8.18067 2.75864 8.498 3.55197C8.82467 4.34531 8.988 5.30197 8.988 6.42197C8.988 7.54197 8.82467 8.49864 8.498 9.29197C8.18067 10.0853 7.714 10.692 7.098 11.112C6.49133 11.532 5.75867 11.742 4.9 11.742ZM4.9 10.594C5.852 10.594 6.58 10.2346 7.084 9.51597C7.588 8.79731 7.84 7.76597 7.84 6.42197C7.84 5.06864 7.588 4.03731 7.084 3.32797C6.58 2.60931 5.852 2.24997 4.9 2.24997C3.948 2.24997 3.22 2.60931 2.716 3.32797C2.212 4.03731 1.96 5.06864 1.96 6.42197C1.96 7.76597 2.212 8.79731 2.716 9.51597C3.22 10.2346 3.948 10.594 4.9 10.594ZM6.944 7.09397C6.916 7.84064 6.72933 8.41464 6.384 8.81597C6.03867 9.21731 5.572 9.41797 4.984 9.41797C4.284 9.41797 3.752 9.16597 3.388 8.66197C3.024 8.15797 2.842 7.41131 2.842 6.42197C2.842 5.42331 3.024 4.67197 3.388 4.16797C3.76133 3.66397 4.30267 3.41197 5.012 3.41197C5.66533 3.41197 6.16 3.62197 6.496 4.04197C6.84133 4.46197 7.028 5.08731 7.056 5.91797H5.88C5.86133 5.47931 5.782 5.15731 5.642 4.95197C5.502 4.73731 5.30133 4.62997 5.04 4.62997C4.732 4.62997 4.49867 4.77931 4.34 5.07797C4.19067 5.36731 4.116 5.81531 4.116 6.42197C4.116 7.01931 4.19067 7.46731 4.34 7.76597C4.48933 8.05531 4.70867 8.19997 4.998 8.19997C5.23133 8.19997 5.41333 8.11131 5.544 7.93397C5.684 7.74731 5.76333 7.46731 5.782 7.09397H6.944ZM19.1455 9.65597L23.0515 6.72997C23.5928 6.32864 23.9895 5.91797 24.2415 5.49797C24.4935 5.06864 24.6195 4.60664 24.6195 4.11197C24.6195 3.48664 24.4421 2.99664 24.0875 2.64197C23.7328 2.27797 23.2428 2.09597 22.6175 2.09597C22.0295 2.09597 21.5488 2.27797 21.1755 2.64197C20.8021 3.00597 20.5408 3.53797 20.3915 4.23797H18.8515C18.8888 3.48197 19.0755 2.83331 19.4115 2.29197C19.7568 1.74131 20.2048 1.32131 20.7555 1.03197C21.3155 0.742639 21.9361 0.597972 22.6175 0.597972C23.3455 0.597972 23.9755 0.747305 24.5075 1.04597C25.0488 1.33531 25.4688 1.74131 25.7675 2.26397C26.0661 2.78664 26.2155 3.40264 26.2155 4.11197C26.2155 4.83997 26.0288 5.51664 25.6555 6.14197C25.2821 6.76731 24.7175 7.35531 23.9615 7.90597L20.5035 10.384V10.524H25.9915V12.022H19.1455V9.65597ZM31.3082 12.246C29.9455 12.246 28.9235 11.7606 28.2422 10.79C27.5609 9.81931 27.2202 8.36331 27.2202 6.42197C27.2202 4.48064 27.5609 3.02464 28.2422 2.05397C28.9235 1.08331 29.9455 0.597972 31.3082 0.597972C32.6709 0.597972 33.6929 1.08331 34.3742 2.05397C35.0555 3.02464 35.3962 4.48064 35.3962 6.42197C35.3962 8.36331 35.0555 9.81931 34.3742 10.79C33.6929 11.7606 32.6709 12.246 31.3082 12.246ZM31.3082 10.748C32.1669 10.748 32.7969 10.398 33.1982 9.69797C33.5995 8.99797 33.8002 7.90597 33.8002 6.42197C33.8002 4.93797 33.5995 3.84597 33.1982 3.14597C32.7969 2.44597 32.1669 2.09597 31.3082 2.09597C30.4495 2.09597 29.8195 2.44597 29.4182 3.14597C29.0169 3.84597 28.8162 4.93797 28.8162 6.42197C28.8162 7.90597 29.0169 8.99797 29.4182 9.69797C29.8195 10.398 30.4495 10.748 31.3082 10.748ZM28.3542 7.72397L34.2062 3.29997V5.11997L28.3542 9.54397V7.72397ZM36.7509 9.65597L40.6569 6.72997C41.1983 6.32864 41.5949 5.91797 41.8469 5.49797C42.0989 5.06864 42.2249 4.60664 42.2249 4.11197C42.2249 3.48664 42.0476 2.99664 41.6929 2.64197C41.3383 2.27797 40.8483 2.09597 40.2229 2.09597C39.6349 2.09597 39.1543 2.27797 38.7809 2.64197C38.4076 3.00597 38.1463 3.53797 37.9969 4.23797H36.4569C36.4943 3.48197 36.6809 2.83331 37.0169 2.29197C37.3623 1.74131 37.8103 1.32131 38.3609 1.03197C38.9209 0.742639 39.5416 0.597972 40.2229 0.597972C40.9509 0.597972 41.5809 0.747305 42.1129 1.04597C42.6543 1.33531 43.0743 1.74131 43.3729 2.26397C43.6716 2.78664 43.8209 3.40264 43.8209 4.11197C43.8209 4.83997 43.6343 5.51664 43.2609 6.14197C42.8876 6.76731 42.3229 7.35531 41.5669 7.90597L38.1089 10.384V10.524H43.5969V12.022H36.7509V9.65597ZM51.4197 0.821972V7.27597H53.0857V8.77397H51.4197V12.022H49.8237V8.77397H44.7837V6.63197L48.6197 0.821972H51.4197ZM46.1697 7.12197V7.27597H49.8237V0.975972H50.2577L46.1697 7.12197ZM62.5711 6.42197H70.4671V7.82197H62.5711V6.42197ZM83.3266 12.022V2.31997H80.0226V0.821972H88.2266V2.31997H84.9226V12.022H83.3266ZM90.5333 6.96797H95.5873L95.0693 7.69597C95.0693 6.75331 94.9013 6.03464 94.5653 5.53997C94.2293 5.04531 93.7393 4.79797 93.0953 4.79797C92.3953 4.79797 91.8493 5.05931 91.4573 5.58197C91.0653 6.09531 90.8693 6.81864 90.8693 7.75197C90.8693 8.75064 91.0653 9.51597 91.4573 10.048C91.8493 10.58 92.4093 10.846 93.1373 10.846C93.6133 10.846 94.0287 10.7293 94.3833 10.496C94.738 10.2533 95.0367 9.90331 95.2793 9.44597H96.7213C96.5813 10.0246 96.3433 10.524 96.0073 10.944C95.6807 11.364 95.27 11.686 94.7753 11.91C94.29 12.134 93.744 12.246 93.1373 12.246C92.3533 12.246 91.6767 12.0686 91.1073 11.714C90.5473 11.3593 90.118 10.846 89.8193 10.174C89.5207 9.50197 89.3713 8.69464 89.3713 7.75197C89.3713 6.85597 89.5207 6.08597 89.8193 5.44197C90.1273 4.78864 90.5613 4.28464 91.1213 3.92997C91.6813 3.57531 92.3393 3.39797 93.0953 3.39797C93.814 3.39797 94.4253 3.56597 94.9293 3.90197C95.4333 4.23797 95.8207 4.72797 96.0913 5.37197C96.362 6.00664 96.4973 6.77664 96.4973 7.68197C96.4973 7.78464 96.4927 7.89197 96.4833 8.00397C96.4833 8.11597 96.4787 8.22331 96.4693 8.32597H90.5333V6.96797ZM101.926 12.246C101.161 12.246 100.498 12.0686 99.9381 11.714C99.3781 11.3593 98.9441 10.8553 98.6361 10.202C98.3281 9.53931 98.1741 8.75997 98.1741 7.86397C98.1741 6.94931 98.3327 6.16064 98.6501 5.49797C98.9674 4.82597 99.4154 4.30797 99.9941 3.94397C100.582 3.57997 101.273 3.39797 102.066 3.39797C102.757 3.39797 103.363 3.54264 103.886 3.83197C104.409 4.11197 104.819 4.51331 105.118 5.03597C105.417 5.54931 105.58 6.16064 105.608 6.86997H104.194C104.073 6.22597 103.821 5.72664 103.438 5.37197C103.065 5.01731 102.589 4.83997 102.01 4.83997C101.273 4.83997 100.703 5.10597 100.302 5.63797C99.9007 6.16997 99.7001 6.91197 99.7001 7.86397C99.7001 8.78797 99.8961 9.51131 100.288 10.034C100.68 10.5473 101.226 10.804 101.926 10.804C102.449 10.804 102.887 10.65 103.242 10.342C103.606 10.0246 103.858 9.58597 103.998 9.02597H105.412C105.365 9.67931 105.188 10.2486 104.88 10.734C104.572 11.21 104.161 11.5833 103.648 11.854C103.144 12.1153 102.57 12.246 101.926 12.246ZM107.215 12.022V0.149972H108.755V4.25197H109.175C109.389 3.98131 109.665 3.77131 110.001 3.62197C110.337 3.47264 110.705 3.39797 111.107 3.39797C111.695 3.39797 112.203 3.52864 112.633 3.78997C113.062 4.05131 113.398 4.41997 113.641 4.89597C113.883 5.37197 114.005 5.93197 114.005 6.57597V12.022H112.465V6.99597C112.465 6.29597 112.306 5.76864 111.989 5.41397C111.681 5.04997 111.223 4.86797 110.617 4.86797C110.01 4.86797 109.548 5.04997 109.231 5.41397C108.913 5.76864 108.755 6.29597 108.755 6.99597V12.022H107.215ZM124.946 12.022V0.821972H128.278C129.408 0.821972 130.299 1.09264 130.952 1.63397C131.606 2.17531 131.932 2.91731 131.932 3.85997C131.932 4.40131 131.788 4.87264 131.498 5.27397C131.218 5.67531 130.822 5.95997 130.308 6.12797V6.35197C130.887 6.52931 131.335 6.84664 131.652 7.30397C131.97 7.76131 132.128 8.30731 132.128 8.94197C132.128 9.89397 131.783 10.6453 131.092 11.196C130.411 11.7466 129.473 12.022 128.278 12.022H124.946ZM126.542 10.538H128.278C129.006 10.538 129.562 10.3886 129.944 10.09C130.336 9.78197 130.532 9.35264 130.532 8.80197C130.532 8.25131 130.336 7.82664 129.944 7.52797C129.562 7.21997 129.006 7.06597 128.278 7.06597H126.542V10.538ZM126.542 5.66597H128.278C128.969 5.66597 129.496 5.52131 129.86 5.23197C130.224 4.94264 130.406 4.52731 130.406 3.98597C130.406 3.44464 130.224 3.02931 129.86 2.73997C129.496 2.45064 128.969 2.30597 128.278 2.30597H126.542V5.66597ZM136.941 12.246C136.166 12.246 135.494 12.0686 134.925 11.714C134.356 11.35 133.912 10.8366 133.595 10.174C133.287 9.51131 133.133 8.72731 133.133 7.82197C133.133 6.91664 133.287 6.13264 133.595 5.46997C133.912 4.80731 134.356 4.29864 134.925 3.94397C135.494 3.57997 136.166 3.39797 136.941 3.39797C137.725 3.39797 138.397 3.57997 138.957 3.94397C139.526 4.29864 139.965 4.80731 140.273 5.46997C140.59 6.13264 140.749 6.91664 140.749 7.82197C140.749 8.72731 140.59 9.51131 140.273 10.174C139.965 10.8366 139.526 11.35 138.957 11.714C138.397 12.0686 137.725 12.246 136.941 12.246ZM136.941 10.804C137.66 10.804 138.22 10.5426 138.621 10.02C139.022 9.49731 139.223 8.76464 139.223 7.82197C139.223 6.87931 139.022 6.14664 138.621 5.62397C138.22 5.10131 137.66 4.83997 136.941 4.83997C136.222 4.83997 135.662 5.10131 135.261 5.62397C134.86 6.14664 134.659 6.87931 134.659 7.82197C134.659 8.76464 134.86 9.49731 135.261 10.02C135.662 10.5426 136.222 10.804 136.941 10.804ZM145.744 12.246C144.969 12.246 144.297 12.0686 143.728 11.714C143.158 11.35 142.715 10.8366 142.398 10.174C142.09 9.51131 141.936 8.72731 141.936 7.82197C141.936 6.91664 142.09 6.13264 142.398 5.46997C142.715 4.80731 143.158 4.29864 143.728 3.94397C144.297 3.57997 144.969 3.39797 145.744 3.39797C146.528 3.39797 147.2 3.57997 147.76 3.94397C148.329 4.29864 148.768 4.80731 149.076 5.46997C149.393 6.13264 149.552 6.91664 149.552 7.82197C149.552 8.72731 149.393 9.51131 149.076 10.174C148.768 10.8366 148.329 11.35 147.76 11.714C147.2 12.0686 146.528 12.246 145.744 12.246ZM145.744 10.804C146.462 10.804 147.022 10.5426 147.424 10.02C147.825 9.49731 148.026 8.76464 148.026 7.82197C148.026 6.87931 147.825 6.14664 147.424 5.62397C147.022 5.10131 146.462 4.83997 145.744 4.83997C145.025 4.83997 144.465 5.10131 144.064 5.62397C143.662 6.14664 143.462 6.87931 143.462 7.82197C143.462 8.76464 143.662 9.49731 144.064 10.02C144.465 10.5426 145.025 10.804 145.744 10.804ZM156.562 12.022L152.964 7.93397L156.688 3.62197H158.634L154.924 7.87797L158.592 12.022H156.562ZM151.886 12.022V0.149972H153.426V12.022H151.886ZM172.39 12.246C171.055 12.246 170.052 11.7653 169.38 10.804C168.717 9.83331 168.386 8.37264 168.386 6.42197C168.386 4.47131 168.727 3.01531 169.408 2.05397C170.099 1.08331 171.135 0.597972 172.516 0.597972C173.263 0.597972 173.907 0.756639 174.448 1.07397C174.989 1.39131 175.414 1.85797 175.722 2.47397C176.039 3.08064 176.226 3.82264 176.282 4.69997H174.812C174.681 3.85064 174.42 3.20664 174.028 2.76797C173.645 2.31997 173.141 2.09597 172.516 2.09597C171.648 2.09597 171.009 2.44597 170.598 3.14597C170.187 3.84597 169.982 4.93797 169.982 6.42197C169.982 7.90597 170.173 8.99797 170.556 9.69797C170.948 10.398 171.559 10.748 172.39 10.748C172.987 10.748 173.468 10.5426 173.832 10.132C174.196 9.72131 174.439 9.12397 174.56 8.33997H176.03C175.974 9.17064 175.797 9.87997 175.498 10.468C175.199 11.0466 174.784 11.49 174.252 11.798C173.729 12.0966 173.109 12.246 172.39 12.246ZM177.875 0.149972H181.963V10.58H184.497V12.022H177.875V10.58H180.423V1.59197H177.875V0.149972ZM193.075 3.62197V12.022H191.535V11.392H191.115C190.901 11.6626 190.625 11.8726 190.289 12.022C189.963 12.1713 189.594 12.246 189.183 12.246C188.605 12.246 188.096 12.1153 187.657 11.854C187.228 11.5926 186.892 11.224 186.649 10.748C186.407 10.272 186.285 9.71197 186.285 9.06797V3.62197H187.825V8.64797C187.825 9.34797 187.979 9.87997 188.287 10.244C188.605 10.5986 189.067 10.776 189.673 10.776C190.28 10.776 190.742 10.5986 191.059 10.244C191.377 9.87997 191.535 9.34797 191.535 8.64797V3.62197H193.075ZM199.148 12.246C198.7 12.246 198.289 12.1573 197.916 11.98C197.543 11.7933 197.263 11.5506 197.076 11.252H196.656V12.022H195.116V0.149972H196.656V4.39197H197.076C197.263 4.08397 197.543 3.84131 197.916 3.66397C198.289 3.48664 198.7 3.39797 199.148 3.39797C199.848 3.39797 200.455 3.57997 200.968 3.94397C201.481 4.29864 201.878 4.80731 202.158 5.46997C202.438 6.13264 202.578 6.91664 202.578 7.82197C202.578 8.72731 202.438 9.51131 202.158 10.174C201.878 10.8366 201.481 11.35 200.968 11.714C200.455 12.0686 199.848 12.246 199.148 12.246ZM198.826 10.804C199.526 10.804 200.067 10.5426 200.45 10.02C200.842 9.49731 201.038 8.76464 201.038 7.82197C201.038 6.87931 200.842 6.14664 200.45 5.62397C200.067 5.10131 199.526 4.83997 198.826 4.83997C198.117 4.83997 197.566 5.10131 197.174 5.62397C196.791 6.14664 196.6 6.87931 196.6 7.82197C196.6 8.76464 196.791 9.49731 197.174 10.02C197.566 10.5426 198.117 10.804 198.826 10.804Z" fill="white"/>
</svg>
