<svg width="238" height="64" viewBox="0 0 238 64" fill="none" xmlns="http://www.w3.org/2000/svg">
<rect x="1" y="1.02197" width="236" height="61" rx="7" fill="#FFF5EF"/>
<rect x="1" y="1.02197" width="236" height="61" rx="7" stroke="#062630" stroke-width="2"/>
<path d="M46.906 35.17C47.074 35.734 47.368 36.16 47.788 36.448C48.22 36.736 48.772 36.88 49.444 36.88C50.152 36.88 50.71 36.712 51.118 36.376C51.526 36.028 51.73 35.554 51.73 34.954C51.73 34.51 51.586 34.144 51.298 33.856C51.01 33.568 50.602 33.388 50.074 33.316L48.346 33.046C47.086 32.842 46.12 32.38 45.448 31.66C44.788 30.928 44.458 29.968 44.458 28.78C44.458 27.856 44.662 27.064 45.07 26.404C45.49 25.732 46.078 25.216 46.834 24.856C47.59 24.484 48.478 24.298 49.498 24.298C50.53 24.298 51.418 24.478 52.162 24.838C52.918 25.198 53.512 25.714 53.944 26.386C54.376 27.058 54.616 27.874 54.664 28.834H52.126C51.958 28.162 51.652 27.652 51.208 27.304C50.764 26.944 50.194 26.764 49.498 26.764C48.754 26.764 48.166 26.938 47.734 27.286C47.302 27.634 47.086 28.114 47.086 28.726C47.086 29.158 47.23 29.518 47.518 29.806C47.818 30.094 48.232 30.28 48.76 30.364L50.47 30.634C51.742 30.826 52.708 31.288 53.368 32.02C54.04 32.752 54.376 33.712 54.376 34.9C54.376 35.8 54.172 36.586 53.764 37.258C53.368 37.918 52.798 38.434 52.054 38.806C51.31 39.166 50.434 39.346 49.426 39.346C48.418 39.346 47.536 39.184 46.78 38.86C46.036 38.524 45.448 38.044 45.016 37.42C44.596 36.796 44.356 36.046 44.296 35.17H46.906ZM55.8275 24.622H58.5275V33.964C58.5275 34.876 58.7375 35.59 59.1575 36.106C59.5895 36.61 60.1895 36.862 60.9575 36.862C61.7255 36.862 62.3195 36.604 62.7395 36.088C63.1715 35.572 63.3875 34.846 63.3875 33.91V24.622H65.9795V34.072C65.9795 35.764 65.5415 37.066 64.6655 37.978C63.8015 38.89 62.5475 39.346 60.9035 39.346C59.2595 39.346 57.9995 38.89 57.1235 37.978C56.2595 37.066 55.8275 35.764 55.8275 34.072V24.622ZM68.025 39.022V24.622H72.867C74.343 24.622 75.495 24.97 76.323 25.666C77.163 26.35 77.583 27.31 77.583 28.546C77.583 29.194 77.409 29.77 77.061 30.274C76.713 30.766 76.227 31.12 75.603 31.336V31.624C76.311 31.864 76.863 32.278 77.259 32.866C77.655 33.454 77.853 34.15 77.853 34.954C77.853 36.226 77.415 37.222 76.539 37.942C75.663 38.662 74.451 39.022 72.903 39.022H68.025ZM70.725 36.52H72.885C73.629 36.52 74.193 36.364 74.577 36.052C74.973 35.728 75.171 35.284 75.171 34.72C75.171 34.144 74.973 33.7 74.577 33.388C74.193 33.076 73.629 32.92 72.885 32.92H70.725V36.52ZM70.725 30.58H72.849C73.557 30.58 74.103 30.436 74.487 30.148C74.871 29.848 75.063 29.422 75.063 28.87C75.063 28.318 74.871 27.892 74.487 27.592C74.103 27.28 73.557 27.124 72.849 27.124H70.725V30.58ZM81.7165 35.17C81.8845 35.734 82.1785 36.16 82.5985 36.448C83.0305 36.736 83.5825 36.88 84.2545 36.88C84.9625 36.88 85.5205 36.712 85.9285 36.376C86.3365 36.028 86.5405 35.554 86.5405 34.954C86.5405 34.51 86.3965 34.144 86.1085 33.856C85.8205 33.568 85.4125 33.388 84.8845 33.316L83.1565 33.046C81.8965 32.842 80.9305 32.38 80.2585 31.66C79.5985 30.928 79.2685 29.968 79.2685 28.78C79.2685 27.856 79.4725 27.064 79.8805 26.404C80.3005 25.732 80.8885 25.216 81.6445 24.856C82.4005 24.484 83.2885 24.298 84.3085 24.298C85.3405 24.298 86.2285 24.478 86.9725 24.838C87.7285 25.198 88.3225 25.714 88.7545 26.386C89.1865 27.058 89.4265 27.874 89.4745 28.834H86.9365C86.7685 28.162 86.4625 27.652 86.0185 27.304C85.5745 26.944 85.0045 26.764 84.3085 26.764C83.5645 26.764 82.9765 26.938 82.5445 27.286C82.1125 27.634 81.8965 28.114 81.8965 28.726C81.8965 29.158 82.0405 29.518 82.3285 29.806C82.6285 30.094 83.0425 30.28 83.5705 30.364L85.2805 30.634C86.5525 30.826 87.5185 31.288 88.1785 32.02C88.8505 32.752 89.1865 33.712 89.1865 34.9C89.1865 35.8 88.9825 36.586 88.5745 37.258C88.1785 37.918 87.6085 38.434 86.8645 38.806C86.1205 39.166 85.2445 39.346 84.2365 39.346C83.2285 39.346 82.3465 39.184 81.5905 38.86C80.8465 38.524 80.2585 38.044 79.8265 37.42C79.4065 36.796 79.1665 36.046 79.1065 35.17H81.7165ZM95.9841 39.346C94.2201 39.346 92.8821 38.716 91.9701 37.456C91.0581 36.184 90.6021 34.306 90.6021 31.822C90.6021 29.326 91.0701 27.448 92.0061 26.188C92.9421 24.928 94.3221 24.298 96.1461 24.298C97.1541 24.298 98.0241 24.514 98.7561 24.946C99.5001 25.366 100.082 25.984 100.502 26.8C100.934 27.604 101.18 28.582 101.24 29.734H98.7741C98.6061 28.762 98.3001 28.03 97.8561 27.538C97.4241 27.034 96.8541 26.782 96.1461 26.782C95.1861 26.782 94.4721 27.196 94.0041 28.024C93.5361 28.84 93.3021 30.106 93.3021 31.822C93.3021 33.538 93.5181 34.81 93.9501 35.638C94.3941 36.454 95.0721 36.862 95.9841 36.862C96.6561 36.862 97.1961 36.634 97.6041 36.178C98.0241 35.71 98.3181 35.026 98.4861 34.126H100.952C100.88 35.23 100.634 36.172 100.214 36.952C99.8061 37.732 99.2421 38.326 98.5221 38.734C97.8141 39.142 96.9681 39.346 95.9841 39.346ZM102.674 39.022V24.622H108.002C108.962 24.622 109.796 24.802 110.504 25.162C111.212 25.51 111.758 26.014 112.142 26.674C112.538 27.334 112.736 28.108 112.736 28.996C112.736 29.812 112.538 30.532 112.142 31.156C111.746 31.78 111.188 32.266 110.468 32.614C109.76 32.962 108.938 33.136 108.002 33.136H105.374V39.022H102.674ZM110.054 39.022L106.364 32.686H109.244L113.096 39.022H110.054ZM105.374 30.85H107.966C108.602 30.85 109.106 30.682 109.478 30.346C109.85 30.01 110.036 29.566 110.036 29.014C110.036 28.45 109.85 28 109.478 27.664C109.106 27.328 108.602 27.16 107.966 27.16H105.374V30.85ZM114.007 39.022V36.466H117.571V27.178H114.007V24.622H123.835V27.178H120.271V36.466H123.835V39.022H114.007ZM126.043 39.022V24.622H130.885C132.361 24.622 133.513 24.97 134.341 25.666C135.181 26.35 135.601 27.31 135.601 28.546C135.601 29.194 135.427 29.77 135.079 30.274C134.731 30.766 134.245 31.12 133.621 31.336V31.624C134.329 31.864 134.881 32.278 135.277 32.866C135.673 33.454 135.871 34.15 135.871 34.954C135.871 36.226 135.433 37.222 134.557 37.942C133.681 38.662 132.469 39.022 130.921 39.022H126.043ZM128.743 36.52H130.903C131.647 36.52 132.211 36.364 132.595 36.052C132.991 35.728 133.189 35.284 133.189 34.72C133.189 34.144 132.991 33.7 132.595 33.388C132.211 33.076 131.647 32.92 130.903 32.92H128.743V36.52ZM128.743 30.58H130.867C131.575 30.58 132.121 30.436 132.505 30.148C132.889 29.848 133.081 29.422 133.081 28.87C133.081 28.318 132.889 27.892 132.505 27.592C132.121 27.28 131.575 27.124 130.867 27.124H128.743V30.58ZM137.97 39.022V24.622H147.078V27.016H140.67V30.67H146.178V32.956H140.67V36.628H146.898V39.022H137.97ZM160.313 39.022V24.622H164.633L167.837 37.06H168.125L167.981 32.038V24.622H170.357V39.022H166.037L162.833 26.584H162.545L162.689 31.606V39.022H160.313ZM176.939 39.346C175.115 39.346 173.735 38.716 172.799 37.456C171.875 36.184 171.413 34.306 171.413 31.822C171.413 29.338 171.875 27.466 172.799 26.206C173.735 24.934 175.115 24.298 176.939 24.298C178.763 24.298 180.137 24.934 181.061 26.206C181.997 27.466 182.465 29.338 182.465 31.822C182.465 34.306 181.997 36.184 181.061 37.456C180.137 38.716 178.763 39.346 176.939 39.346ZM176.939 36.862C177.899 36.862 178.607 36.454 179.063 35.638C179.531 34.81 179.765 33.538 179.765 31.822C179.765 30.106 179.531 28.84 179.063 28.024C178.607 27.196 177.899 26.782 176.939 26.782C175.979 26.782 175.265 27.196 174.797 28.024C174.341 28.84 174.113 30.106 174.113 31.822C174.113 33.538 174.341 34.81 174.797 35.638C175.265 36.454 175.979 36.862 176.939 36.862ZM185.068 24.622L185.734 31.57L185.986 36.79H186.274L187.084 28.042H190.198L190.936 36.79H191.224L191.494 31.57L192.178 24.622H194.536L193.042 39.022H189.478L188.704 30.094H188.434L187.57 39.022H184.042L182.548 24.622H185.068Z" fill="#062630"/>
</svg>
