<svg width="64" height="23" viewBox="0 0 64 23" fill="none" xmlns="http://www.w3.org/2000/svg">
<path d="M4.80391 2.69461C7.31328 4.57234 10.0117 8.38797 11 10.4376C11.9883 8.39227 14.6867 4.57664 17.1961 2.69461C19.0051 1.3368 21.9355 0.288358 21.9355 3.63133C21.9355 4.29734 21.5531 9.23875 21.3297 10.0423C20.5477 12.8266 17.7031 13.5399 15.1723 13.1059C19.5938 13.8579 20.7195 16.3501 18.2875 18.8423C13.6727 23.5774 11.6574 17.6563 11.1418 16.1395C11.0687 15.929 11.0301 15.8044 11 15.8044C10.9699 15.8044 10.9312 15.9333 10.8582 16.1395C10.3426 17.6563 8.32305 23.5774 3.7125 18.8423C1.28477 16.3501 2.40625 13.8579 6.82773 13.1059C4.29687 13.5399 1.45234 12.8266 0.674609 10.038C0.446875 9.23445 0.0644531 4.29305 0.0644531 3.62703C0.0644531 0.284061 2.99492 1.3325 4.80391 2.69031V2.69461Z" fill="white"/>
<path d="M62.25 2.77197C62.9141 2.77197 63.5 3.35791 63.5 4.06104V19.022C63.5 19.7251 62.9141 20.272 62.25 20.272H47.2109C46.5469 20.272 46 19.7251 46 19.022V4.06104C46 3.35791 46.5469 2.77197 47.2109 2.77197H62.25ZM51.2734 17.772V9.45166H48.6953V17.772H51.2734ZM49.9844 8.27979C50.8047 8.27979 51.4688 7.61572 51.4688 6.79541C51.4688 5.9751 50.8047 5.27197 49.9844 5.27197C49.125 5.27197 48.4609 5.9751 48.4609 6.79541C48.4609 7.61572 49.125 8.27979 49.9844 8.27979ZM61 17.772V13.2017C61 10.9751 60.4922 9.21729 57.875 9.21729C56.625 9.21729 55.7656 9.92041 55.4141 10.5845H55.375V9.45166H52.9141V17.772H55.4922V13.6704C55.4922 12.5767 55.6875 11.522 57.0547 11.522C58.3828 11.522 58.3828 12.772 58.3828 13.7095V17.772H61Z" fill="white"/>
</svg>
