<svg width="238" height="64" viewBox="0 0 238 64" fill="none" xmlns="http://www.w3.org/2000/svg">
<rect x="1" y="1.02197" width="236" height="61" rx="7" fill="#FFF5EF"/>
<rect x="1" y="1.02197" width="236" height="61" rx="7" stroke="#062630" stroke-width="2"/>
<path d="M64.95 39.022V27.178H60.81V24.622H71.79V27.178H67.65V39.022H64.95ZM72.2695 39.022L75.6715 24.622H80.1355L83.5375 39.022H80.8015L77.9575 26.602H77.6875L74.8435 39.022H72.2695ZM74.6095 34.576V32.02H81.1975V34.576H74.6095ZM86.015 39.022V24.622H88.715V36.466H94.727V39.022H86.015ZM96.9345 24.622H99.6165V39.022H96.9345V24.622ZM103.397 39.022L99.0225 32.074L103.775 24.622H106.745L102.065 31.948L106.511 39.022H103.397ZM122.968 39.022V27.178H118.828V24.622H129.808V27.178H125.668V39.022H122.968ZM135.921 39.346C134.097 39.346 132.717 38.716 131.781 37.456C130.857 36.184 130.395 34.306 130.395 31.822C130.395 29.338 130.857 27.466 131.781 26.206C132.717 24.934 134.097 24.298 135.921 24.298C137.745 24.298 139.119 24.934 140.043 26.206C140.979 27.466 141.447 29.338 141.447 31.822C141.447 34.306 140.979 36.184 140.043 37.456C139.119 38.716 137.745 39.346 135.921 39.346ZM135.921 36.862C136.881 36.862 137.589 36.454 138.045 35.638C138.513 34.81 138.747 33.538 138.747 31.822C138.747 30.106 138.513 28.84 138.045 28.024C137.589 27.196 136.881 26.782 135.921 26.782C134.961 26.782 134.247 27.196 133.779 28.024C133.323 28.84 133.095 30.106 133.095 31.822C133.095 33.538 133.323 34.81 133.779 35.638C134.247 36.454 134.961 36.862 135.921 36.862ZM154.052 24.622H156.752V33.964C156.752 34.876 156.962 35.59 157.382 36.106C157.814 36.61 158.414 36.862 159.182 36.862C159.95 36.862 160.544 36.604 160.964 36.088C161.396 35.572 161.612 34.846 161.612 33.91V24.622H164.204V34.072C164.204 35.764 163.766 37.066 162.89 37.978C162.026 38.89 160.772 39.346 159.128 39.346C157.484 39.346 156.224 38.89 155.348 37.978C154.484 37.066 154.052 35.764 154.052 34.072V24.622ZM168.338 35.17C168.506 35.734 168.8 36.16 169.22 36.448C169.652 36.736 170.204 36.88 170.876 36.88C171.584 36.88 172.142 36.712 172.55 36.376C172.958 36.028 173.162 35.554 173.162 34.954C173.162 34.51 173.018 34.144 172.73 33.856C172.442 33.568 172.034 33.388 171.506 33.316L169.778 33.046C168.518 32.842 167.552 32.38 166.88 31.66C166.22 30.928 165.89 29.968 165.89 28.78C165.89 27.856 166.094 27.064 166.502 26.404C166.922 25.732 167.51 25.216 168.266 24.856C169.022 24.484 169.91 24.298 170.93 24.298C171.962 24.298 172.85 24.478 173.594 24.838C174.35 25.198 174.944 25.714 175.376 26.386C175.808 27.058 176.048 27.874 176.096 28.834H173.558C173.39 28.162 173.084 27.652 172.64 27.304C172.196 26.944 171.626 26.764 170.93 26.764C170.186 26.764 169.598 26.938 169.166 27.286C168.734 27.634 168.518 28.114 168.518 28.726C168.518 29.158 168.662 29.518 168.95 29.806C169.25 30.094 169.664 30.28 170.192 30.364L171.902 30.634C173.174 30.826 174.14 31.288 174.8 32.02C175.472 32.752 175.808 33.712 175.808 34.9C175.808 35.8 175.604 36.586 175.196 37.258C174.8 37.918 174.23 38.434 173.486 38.806C172.742 39.166 171.866 39.346 170.858 39.346C169.85 39.346 168.968 39.184 168.212 38.86C167.468 38.524 166.88 38.044 166.448 37.42C166.028 36.796 165.788 36.046 165.728 35.17H168.338Z" fill="#062630"/>
</svg>
